# xmcd CD database file
#
# Track frame offsets:
#	150
#	25322
#	48030
#
# Disc length: 974 seconds
#
# Revision: 0
# Processed by: cddbd v1.5.1PL0 Copyright (c) Steve Scherf et al.
# Submitted via: CDex 1.51
#
DISCID=1903cc03
DTITLE=Tokyo Performance Doll - 気持ちはING
DYEAR=1995
DGENRE=JPop
TTITLE0=気持ちはING
TTITLE1=check my heart〜空が壊れないように〜
TTITLE2=気持ちはING(backing track)
EXTD=YEAR: 1995
EXTT0=
EXTT1=
EXTT2=
PLAYORDER=
